<?xml version="1.0" encoding="UTF-8" standalone="no"?>
<svg
   xmlns:dc="http://purl.org/dc/elements/1.1/"
   xmlns:cc="http://creativecommons.org/ns#"
   xmlns:rdf="http://www.w3.org/1999/02/22-rdf-syntax-ns#"
   xmlns:svg="http://www.w3.org/2000/svg"
   xmlns="http://www.w3.org/2000/svg"
   id="svg913"
   version="1.1"
   viewBox="0 0 53.14 44.85">
  <metadata
     id="metadata917">
    <rdf:RDF>
      <cc:Work
         rdf:about="">
        <dc:format>image/svg+xml</dc:format>
        <dc:type
           rdf:resource="http://purl.org/dc/dcmitype/StillImage" />
        <dc:title>Asset 11</dc:title>
      </cc:Work>
    </rdf:RDF>
  </metadata>
  <defs
     id="defs899">
    <style
       id="style897">.cls-1{fill:#0e61ae;}</style>
  </defs>
  <title
     id="title901">Asset 11</title>
  <g
     data-name="Layer 2"
     id="Layer_2">
    <g
       data-name="Layer 1"
       id="Layer_1-2">
      <path
         id="path903"
         d="M18.06,8A1.3,1.3,0,0,0,16.3,9.06V22.34a1.28,1.28,0,0,0,1.76,1.08l13.28-6.64a1.17,1.17,0,0,0,0-2.15Zm.66,12.39V11L28.1,15.7Z"
         class="cls-1" />
      <path
         id="path905"
         d="M51.93,28.38H49.36a10,10,0,0,0-1.62-2.81L49,23.36a1.25,1.25,0,0,0-.43-1.64L44,19.23a1,1,0,0,0-1.24.51L41.48,22a9.69,9.69,0,0,0-1.63-.21,9.44,9.44,0,0,0-1.62.21L37,19.74a1.11,1.11,0,0,0-1.65-.43l-4.18,2.41a1.26,1.26,0,0,0-.44,1.64L32,25.57a10.45,10.45,0,0,0-1.62,2.81H27.78c-.78,0-1.15.19-1.24.83l0,5.21a1.26,1.26,0,0,0,1.21,1.21h2.56A10.45,10.45,0,0,0,32,38.44l-1.28,2.21a1.26,1.26,0,0,0,.44,1.64l4.18,2.42A1.27,1.27,0,0,0,37,44.27l1.28-2.21a9.44,9.44,0,0,0,1.62.21,9.69,9.69,0,0,0,1.63-.21l1.28,2.21a1.26,1.26,0,0,0,1.64.44l4.19-2.42A1.25,1.25,0,0,0,49,40.65l-1.28-2.21a10,10,0,0,0,1.62-2.81h2.57a1.26,1.26,0,0,0,1.21-1.21V29.59A1.26,1.26,0,0,0,51.93,28.38Zm-1.21,4.83H48.57a1.24,1.24,0,0,0-1.17.89,7.79,7.79,0,0,1-2,3.4A1.22,1.22,0,0,0,45.27,39l1.07,1.87L44.23,42l-1.08-1.87a1.24,1.24,0,0,0-1.34-.57,7.25,7.25,0,0,1-3.92,0,1.24,1.24,0,0,0-1.34.57L35.47,42l-2.11-1.21L34.44,39a1.25,1.25,0,0,0-.17-1.45,7.71,7.71,0,0,1-2-3.4,1.24,1.24,0,0,0-1.17-.89H29V30.8h2.15a1.24,1.24,0,0,0,1.17-.89,7.68,7.68,0,0,1,2-3.39,1.27,1.27,0,0,0,.17-1.46l-1.08-1.87L35.47,22l1.08,1.86a1.24,1.24,0,0,0,1.34.57,7.52,7.52,0,0,1,3.92,0,1.24,1.24,0,0,0,1.34-.57L44.23,22l2.11,1.2-1.07,1.87a1.24,1.24,0,0,0,.17,1.46,7.75,7.75,0,0,1,2,3.39,1.24,1.24,0,0,0,1.17.89h2.15Z"
         class="cls-1" />
      <path
         id="path907"
         d="M39.85,26.57A5.44,5.44,0,1,0,45.29,32,5.46,5.46,0,0,0,39.85,26.57Zm0,8.46a3,3,0,1,1,3-3A3,3,0,0,1,39.85,35Z"
         class="cls-1" />
      <path
         id="path909"
         d="M23.92,29H3.62a1.18,1.18,0,0,1-1.2-1.21V3.63a1.18,1.18,0,0,1,1.2-1.21H42.27a1.18,1.18,0,0,1,1.21,1.21V16.81h0a1.21,1.21,0,0,0,2.41,0h0V3.63A3.65,3.65,0,0,0,42.27,0H3.62A3.65,3.65,0,0,0,0,3.63V27.78A3.64,3.64,0,0,0,3.62,31.4h20.3a1.21,1.21,0,0,0,0-2.41Z"
         class="cls-1" />
    </g>
  </g>
</svg>
