<svg width="58" height="48" viewBox="0 0 58 48" fill="none" xmlns="http://www.w3.org/2000/svg">
<path d="M1.55396 17L13.7537 1.38436C13.9432 1.14178 14.2339 1 14.5417 1H28.554M1.55396 17L29.054 47M1.55396 17C1.55396 17 12.0336 17 18.554 17M29.054 47C29.054 47 45.8145 29.2156 56.554 17M29.054 47C29.054 47 35.3349 29.2156 39.554 17M29.054 47C29.054 47 22.773 29.2156 18.554 17M56.554 17C52.9942 11.2154 45.8704 3.05471 44.3455 1.32853C44.1571 1.11531 43.8913 1 43.6068 1H28.554M56.554 17C50.0336 17 46.0743 17 39.554 17M28.554 1C28.554 1 36.054 11.5 39.554 17M28.554 1C28.554 1 22.054 11 18.554 17M39.554 17C31.1158 17 26.9921 17 18.554 17" stroke="#EE6619" stroke-width="2" stroke-linecap="round" stroke-linejoin="round"/>
</svg>
