<?xml version="1.0" encoding="UTF-8" standalone="no"?>
<svg
   xmlns:dc="http://purl.org/dc/elements/1.1/"
   xmlns:cc="http://creativecommons.org/ns#"
   xmlns:rdf="http://www.w3.org/1999/02/22-rdf-syntax-ns#"
   xmlns:svg="http://www.w3.org/2000/svg"
   xmlns="http://www.w3.org/2000/svg"
   id="svg1488"
   version="1.1"
   viewBox="0 0 49.27 34.69">
  <metadata
     id="metadata1492">
    <rdf:RDF>
      <cc:Work
         rdf:about="">
        <dc:format>image/svg+xml</dc:format>
        <dc:type
           rdf:resource="http://purl.org/dc/dcmitype/StillImage" />
        <dc:title>Asset 9</dc:title>
      </cc:Work>
    </rdf:RDF>
  </metadata>
  <defs
     id="defs1480">
    <style
       id="style1478">.cls-1{fill:#0e61ae;}</style>
  </defs>
  <title
     id="title1482">Asset 9</title>
  <g
     data-name="Layer 2"
     id="Layer_2">
    <g
       data-name="Layer 1"
       id="Layer_1-2">
      <path
         id="path1484"
         d="M7.1,0A3.69,3.69,0,0,0,3.41,3.65V12.3a1.12,1.12,0,0,0,2.24,0V3.65A1.41,1.41,0,0,1,7.1,2.24H45.58A1.41,1.41,0,0,1,47,3.65v24a1.41,1.41,0,0,1-1.45,1.41H21.38a1.12,1.12,0,0,0,0,2.24H45.58a3.69,3.69,0,0,0,3.69-3.65v-24A3.69,3.69,0,0,0,45.58,0ZM21.2,7.83a1.12,1.12,0,0,0-1,1.12V22.37a1.12,1.12,0,0,0,1.12,1.12,1.14,1.14,0,0,0,.54-.14l12.3-6.71a1.12,1.12,0,0,0,.44-1.52,1,1,0,0,0-.44-.44L21.85,8A1.13,1.13,0,0,0,21.2,7.83Zm1.23,3,8.84,4.82-8.84,4.82ZM1.07,15.66a1.12,1.12,0,0,0,.1,2.24h0A15.65,15.65,0,0,1,16.83,33.56a1.12,1.12,0,0,0,2.24,0v0a17.92,17.92,0,0,0-17.9-17.9Zm0,4.47a1.12,1.12,0,1,0,.1,2.24A11.18,11.18,0,0,1,12.36,33.56a1.12,1.12,0,0,0,2.24,0v0A13.45,13.45,0,0,0,1.17,20.13Zm0,4.48a1.12,1.12,0,1,0,.1,2.24,6.69,6.69,0,0,1,6.71,6.71,1.12,1.12,0,0,0,2.24,0v0a9,9,0,0,0-8.95-9Z"
         class="cls-1" />
    </g>
  </g>
</svg>
