<?xml version="1.0" encoding="UTF-8" standalone="no"?>
<svg
   xmlns:dc="http://purl.org/dc/elements/1.1/"
   xmlns:cc="http://creativecommons.org/ns#"
   xmlns:rdf="http://www.w3.org/1999/02/22-rdf-syntax-ns#"
   xmlns:svg="http://www.w3.org/2000/svg"
   xmlns="http://www.w3.org/2000/svg"
   id="svg2071"
   version="1.1"
   viewBox="0 0 53.23 43.55">
  <metadata
     id="metadata2075">
    <rdf:RDF>
      <cc:Work
         rdf:about="">
        <dc:format>image/svg+xml</dc:format>
        <dc:type
           rdf:resource="http://purl.org/dc/dcmitype/StillImage" />
        <dc:title>Asset 12</dc:title>
      </cc:Work>
    </rdf:RDF>
  </metadata>
  <defs
     id="defs2059">
    <style
       id="style2057">.cls-1{fill:#0e61ae;}</style>
  </defs>
  <title
     id="title2061">Asset 12</title>
  <g
     data-name="Layer 2"
     id="Layer_2">
    <g
       data-name="Layer 1"
       id="Layer_1-2">
      <path
         id="path2063"
         d="M43.55,19.65a1.22,1.22,0,0,0,1.22,1.21,1.2,1.2,0,0,0,1.2-1.2h0v-16A3.65,3.65,0,0,0,42.34,0H3.63A3.65,3.65,0,0,0,0,3.63v24.2a3.65,3.65,0,0,0,3.63,3.63H24.34v0h0a1.21,1.21,0,0,0,0-2.41H3.63a1.18,1.18,0,0,1-1.21-1.21V3.63A1.18,1.18,0,0,1,3.63,2.42H42.34a1.18,1.18,0,0,1,1.21,1.21"
         class="cls-1" />
      <path
         id="path2065"
         d="M52,29H50.8V21.77a1.21,1.21,0,0,0-1.21-1.21H48.26a1.46,1.46,0,0,0-.34.1L36.05,25.4H27.7a1.22,1.22,0,0,0-1.1,1.21V29h0v2.42h0v2.42a1.21,1.21,0,0,0,1.21,1.21h2.84L30,39.75a1,1,0,0,0,0,.17,3.64,3.64,0,1,0,6.75-1.78l.51-2.6,10.73,4.29a1.22,1.22,0,0,0,.46.09h1.21a1.21,1.21,0,0,0,1.21-1.21V31.45H52A1.21,1.21,0,0,0,52,29ZM34.48,39.13a1.16,1.16,0,0,1,.31.79,1.21,1.21,0,0,1-2.42.06l.71-4.9H34.8l-.6,3A1.23,1.23,0,0,0,34.48,39.13Zm.59-6.47H29V27.82h6.05Zm13.31,4.75L37.49,33.06V27.43l10.89-4.35Z"
         class="cls-1" />
      <path
         id="path2067"
         d="M31.38,14.65,18.08,8a1.24,1.24,0,0,0-.59-.13,1.21,1.21,0,0,0-1.17,1.21V22.38a1.21,1.21,0,0,0,1.21,1.21,1.31,1.31,0,0,0,.55-.13l13.3-6.66a1.2,1.2,0,0,0,0-2.15ZM18.74,20.41V11l9.39,4.68Z"
         class="cls-1" />
    </g>
  </g>
</svg>
