<svg width="199" height="150" viewBox="0 0 199 150" fill="none" xmlns="http://www.w3.org/2000/svg">
<mask id="mask0_814_11452" style="mask-type:alpha" maskUnits="userSpaceOnUse" x="0" y="0" width="199" height="175">
<rect x="0.695709" y="0.470642" width="197.372" height="173.614" fill="#DCEBF8"/>
</mask>
<g mask="url(#mask0_814_11452)">
<path d="M108.768 29.382L55.9268 9.65031C55.6639 9.55216 55.3855 9.75197 55.3943 10.0324L56.8283 55.5392L108.858 33.4168C110.664 32.6487 110.607 30.0687 108.768 29.382Z" fill="#3271A8"/>
<path d="M61.7141 210.584L56.8283 55.5392L55.3758 9.44459" stroke="#151824" stroke-width="0.724218"/>
<path d="M54.2854 77.3607C55.4321 78.0557 58.9685 78.7363 60.5933 78.9897L61.4039 73.4811C59.1286 72.6623 54.3997 71.171 53.687 71.7559C52.7961 72.4869 52.852 76.492 54.2854 77.3607Z" fill="white" stroke="#151824" stroke-width="0.724218"/>
<path d="M115.677 75.7113C126.493 72.6047 139.084 72.8663 143.686 74.5442L186.092 34.8304L190.668 38.9401L152.439 93.4115C153.283 109.758 152.758 133.844 152.439 136.398C152.04 139.591 113.17 139.651 104.59 134.064L108.286 93.4115L88.7361 90.5282L60.7519 80.2716L61.5243 72.8447L88.3316 77.6904L115.677 75.7113Z" fill="#DCEBF8" stroke="#151824" stroke-width="0.724218"/>
<path d="M189.265 37.5192C191.75 36.151 196.154 32.1193 196.858 27.9644C197.738 22.7707 186.806 34.875 186.555 35.1682" stroke="#151824" stroke-width="0.724218"/>
<path d="M97.3153 202.92L100.471 169.793C100.722 167.158 101.212 164.552 101.935 162.005L109.185 136.464C117.288 137.806 131.853 139.832 147.282 138.296L146.104 210.868C146.053 214.031 143.26 216.445 140.123 216.038C137.778 215.734 135.918 213.914 135.563 211.576L126.789 153.669C122.665 161.914 122.116 163.399 119.118 169.993L106.57 204.986C105.738 207.308 103.275 208.614 100.886 208.002C98.607 207.418 97.0922 205.262 97.3153 202.92Z" fill="#151824"/>
<path d="M133.691 142.786C133.691 142.786 130.367 148.297 126.789 153.669M126.789 153.669C122.665 161.914 122.116 163.399 119.118 169.993L106.57 204.986C105.738 207.308 103.275 208.614 100.886 208.002V208.002C98.607 207.418 97.0922 205.262 97.3153 202.92L100.471 169.793C100.722 167.158 101.212 164.552 101.935 162.005L109.185 136.464C117.288 137.806 131.853 139.832 147.282 138.296L146.104 210.868C146.053 214.031 143.26 216.445 140.123 216.038V216.038C137.778 215.734 135.918 213.914 135.563 211.576L126.789 153.669Z" stroke="#151824" stroke-width="0.724218"/>
<path d="M133.123 142.125L126.285 156.443" stroke="#DCEBF8" stroke-width="0.789177"/>
<path d="M124.208 58.2312L125.124 73.7402C126.778 73.6881 131.687 72.932 134.212 73.3005L135.433 57.7091L124.208 58.2312Z" stroke="#151824" stroke-width="0.724218"/>
<path d="M134.84 65.754C129.937 67.7765 125.572 66.1416 124.097 64.8895C122.698 61.8124 121.754 56.2995 122.211 52.3691C122.965 45.8937 135.846 46.306 137.558 51.2409C138.85 54.9642 136.769 62.8071 134.84 65.754Z" fill="#151824"/>
</g>
<path d="M125.739 72.8754C122.119 72.3362 121.118 69.6404 120.501 66.2514C120.32 65.2513 121.7 60.2789 121.9 58.9656C120.561 57.8253 118.406 54.9593 120.501 52.6177C123.12 49.6908 128.281 48.9207 132.671 49.7679C137.062 50.6152 137.678 52.6178 141.067 55.0826C144.456 57.5474 143.301 55.0058 151.311 53.0802C159.322 51.1547 157.627 57.0084 164.482 60.7056C171.338 64.4028 183.662 59.7043 188.129 66.2514C192.596 72.7984 183.671 89.1718 170.383 87.7972C160.974 86.8239 154.24 78.9359 146.307 75.8549C138.373 72.774 129.359 73.4146 125.739 72.8754Z" fill="#151824"/>
</svg>
