<svg xmlns="http://www.w3.org/2000/svg" viewBox="0 0 22 22"><defs><style>.cls-1{fill:#555;}</style></defs><title>Asset 13</title><g id="Layer_2" data-name="Layer 2"><g id="Layer_1-2" data-name="Layer 1"><rect class="cls-1" x="3.66" y="8.53" width="3.15" height="9.81"/><path class="cls-1" d="M5.37,3.67a1.62,1.62,0,0,0-1.7,1.69A1.61,1.61,0,0,0,5.33,7.05h0a1.62,1.62,0,0,0,1.7-1.69A1.61,1.61,0,0,0,5.37,3.67Z"/><path class="cls-1" d="M14.7,8.31A3.2,3.2,0,0,0,11.86,9.9V8.54H8.71v9.8h3.15V12.76A2.26,2.26,0,0,1,12,12a1.73,1.73,0,0,1,1.62-1.16c1.14,0,1.6.88,1.6,2.16v5.36h3.15V12.61C18.34,9.67,16.78,8.31,14.7,8.31Z"/><path class="cls-1" d="M20.24,0H1.88A1.79,1.79,0,0,0,0,1.71v18.4A1.94,1.94,0,0,0,1.88,22H20.23A1.84,1.84,0,0,0,22,20.11V1.71A1.68,1.68,0,0,0,20.24,0Zm-.07,20.06a.12.12,0,0,1-.11.11H2A.18.18,0,0,1,1.83,20V2A.13.13,0,0,1,2,1.83H20.06a.13.13,0,0,1,.11.12Z"/></g></g></svg>