<?xml version="1.0" encoding="UTF-8" standalone="no"?>
<svg
   xmlns:osb="http://www.openswatchbook.org/uri/2009/osb"
   xmlns:dc="http://purl.org/dc/elements/1.1/"
   xmlns:cc="http://creativecommons.org/ns#"
   xmlns:rdf="http://www.w3.org/1999/02/22-rdf-syntax-ns#"
   xmlns:svg="http://www.w3.org/2000/svg"
   xmlns="http://www.w3.org/2000/svg"
   id="svg1048"
   version="1.1"
   viewBox="0 0 23.375819 19.868208"
   height="19.868208"
   width="23.375818">
  <metadata
     id="metadata1052">
    <rdf:RDF>
      <cc:Work
         rdf:about="">
        <dc:format>image/svg+xml</dc:format>
        <dc:type
           rdf:resource="http://purl.org/dc/dcmitype/StillImage" />
        <dc:title></dc:title>
      </cc:Work>
    </rdf:RDF>
  </metadata>
  <defs
     id="defs1044">
    <linearGradient
       osb:paint="solid"
       id="linearGradient3059">
      <stop
         id="stop3057"
         offset="0"
         style="stop-color:#000000;stop-opacity:1;" />
    </linearGradient>
    <style
       id="style1042">
      .cls-1 {
        fill: #a4a4a4;
        fill-rule: evenodd;
      }
    </style>
  </defs>
  <path
     style="fill:none;fill-rule:evenodd;stroke:#555555;stroke-width:1.5;stroke-linejoin:round;stroke-miterlimit:4;stroke-dasharray:none;stroke-opacity:1"
     id="path1046"
     d="m 7.63341,19.118208 c 8.25222,0 12.766842,-7.069115 12.766842,-13.1982106 0,-0.200931 0,-0.4004568 -0.01265,-0.5999826 A 9.3088629,9.3088629 0 0 0 22.625945,2.9186794 8.7271468,8.7271468 0 0 1 20.048971,3.6479322 4.6368676,4.6368676 0 0 0 22.016126,1.0821989 8.8226944,8.8226944 0 0 1 19.166561,2.206288 4.3881628,4.3881628 0 0 0 12.818267,2.005357 4.7394407,4.7394407 0 0 0 11.519944,6.4370783 12.601039,12.601039 0 0 1 2.2729061,1.5908492 4.7366305,4.7366305 0 0 0 3.6611561,7.783175 4.3389839,4.3389839 0 0 1 1.6251497,7.202864 v 0.059015 a 4.60455,4.60455 0 0 0 3.5998994,4.54694 4.3375788,4.3375788 0 0 1 -2.0261706,0.08009 4.5118126,4.5118126 0 0 0 4.1914472,3.221921 8.7636797,8.7636797 0 0 1 -6.64055638,1.922192 12.405728,12.405728 0 0 0 6.88504578,2.079565"
     class="cls-1" />
</svg>
